<svg width="20" height="20" viewBox="0 0 20 20" fill="none" xmlns="http://www.w3.org/2000/svg">
<path fill-rule="evenodd" clip-rule="evenodd" d="M0 5.44469C0 2.43813 2.43813 0 5.44469 0H14.1562C17.1628 0 19.6009 2.43813 19.6009 5.44469V14.1562C19.6009 17.1628 17.1628 19.6009 14.1562 19.6009H5.44469C2.43813 19.6009 0 17.1628 0 14.1562V5.44469ZM17.414 3.26668C17.414 2.66558 16.9261 2.17774 16.325 2.17774C15.7239 2.17774 15.2361 2.66558 15.2361 3.26668C15.2361 3.86777 15.7239 4.35562 16.325 4.35562C16.9261 4.35562 17.414 3.86777 17.414 3.26668ZM9.8036 4.35579C12.8102 4.35579 15.2483 6.79393 15.2483 9.80049C15.2483 12.807 12.8102 15.2452 9.8036 15.2452C6.79704 15.2452 4.35891 12.807 4.35891 9.80049C4.35891 6.79393 6.79704 4.35579 9.8036 4.35579ZM6.53148 9.7993C6.53148 7.99508 7.99409 6.53248 9.7983 6.53248C11.6025 6.53248 13.0651 7.99508 13.0651 9.7993C13.0651 11.6035 11.6025 13.0661 9.7983 13.0661C7.99409 13.0661 6.53148 11.6035 6.53148 9.7993Z" fill="#36BA5F"/>
</svg>
